<svg width="32" height="32" viewBox="0 0 32 32" fill="none" xmlns="http://www.w3.org/2000/svg">
  <!-- Hintergrund-Kreis -->
  <circle cx="16" cy="16" r="16" fill="#14b8a6"/>
  
  <!-- NLP Symbole - Neuronales Netz -->
  <g fill="white">
    <!-- Neuronen -->
    <circle cx="8" cy="10" r="2"/>
    <circle cx="8" cy="16" r="2"/>
    <circle cx="8" cy="22" r="2"/>
    
    <circle cx="16" cy="8" r="2"/>
    <circle cx="16" cy="16" r="2"/>
    <circle cx="16" cy="24" r="2"/>
    
    <circle cx="24" cy="12" r="2"/>
    <circle cx="24" cy="20" r="2"/>
    
    <!-- Verbindungen -->
    <path d="M10 10 L14 8" stroke="white" stroke-width="1" opacity="0.7"/>
    <path d="M10 10 L14 16" stroke="white" stroke-width="1" opacity="0.7"/>
    <path d="M10 16 L14 8" stroke="white" stroke-width="1" opacity="0.7"/>
    <path d="M10 16 L14 16" stroke="white" stroke-width="1" opacity="0.7"/>
    <path d="M10 16 L14 24" stroke="white" stroke-width="1" opacity="0.7"/>
    <path d="M10 22 L14 16" stroke="white" stroke-width="1" opacity="0.7"/>
    <path d="M10 22 L14 24" stroke="white" stroke-width="1" opacity="0.7"/>
    
    <path d="M18 8 L22 12" stroke="white" stroke-width="1" opacity="0.7"/>
    <path d="M18 16 L22 12" stroke="white" stroke-width="1" opacity="0.7"/>
    <path d="M18 16 L22 20" stroke="white" stroke-width="1" opacity="0.7"/>
    <path d="M18 24 L22 20" stroke="white" stroke-width="1" opacity="0.7"/>
  </g>
  
  <!-- NLP Text Symbol -->
  <text x="16" y="18" font-family="Arial, sans-serif" font-size="6" font-weight="bold" text-anchor="middle" fill="white" opacity="0.9">NLP</text>
</svg>
